<svg xmlns="http://www.w3.org/2000/svg" viewBox="0 0 200 80" width="200" height="80">
  <defs>
    <linearGradient id="g1" x1="0%" y1="0%" x2="100%" y2="100%">
      <stop offset="0%" style="stop-color:#0f2b5b"/>
      <stop offset="100%" style="stop-color:#0e7490"/>
    </linearGradient>
  </defs>
  <path d="M10 52 L30 52 L35 42 L65 42 L70 52 L80 52 L75 60 L15 60 Z" fill="url(#g1)"/>
  <rect x="33" y="30" width="25" height="13" rx="2" fill="#1a4a8a"/>
  <rect x="38" y="22" width="15" height="10" rx="2" fill="#0f2b5b"/>
  <rect x="47" y="14" width="6" height="10" rx="1" fill="#0f2b5b"/>
  <ellipse cx="50" cy="13" rx="5" ry="3" fill="#0e7490"/>
  <rect x="36" y="34" width="4" height="3" rx="1" fill="white" opacity="0.8"/>
  <rect x="43" y="34" width="4" height="3" rx="1" fill="white" opacity="0.8"/>
  <rect x="50" y="34" width="4" height="3" rx="1" fill="white" opacity="0.8"/>
  <path d="M5 63 Q20 58 35 63 Q50 68 65 63 Q80 58 85 63" stroke="#0e7490" stroke-width="2" fill="none" opacity="0.6"/>
  <text x="95" y="45" font-family="Arial,sans-serif" font-size="22" font-weight="bold" fill="#0f2b5b">Cruise0</text>
  <text x="95" y="60" font-family="Arial,sans-serif" font-size="9" fill="#0e7490" letter-spacing="1">BOOK YOUR ADVENTURE</text>
</svg>