<svg xmlns="http://www.w3.org/2000/svg" viewBox="0 0 1440 900">
  <defs>
    <linearGradient id="sky" x1="0%" y1="0%" x2="0%" y2="100%">
      <stop offset="0%" style="stop-color:#0a1628"/>
      <stop offset="60%" style="stop-color:#0f2b5b"/>
      <stop offset="100%" style="stop-color:#0e7490"/>
    </linearGradient>
    <linearGradient id="sea" x1="0%" y1="0%" x2="0%" y2="100%">
      <stop offset="0%" style="stop-color:#0e7490"/>
      <stop offset="100%" style="stop-color:#0a4a5a"/>
    </linearGradient>
  </defs>
  <rect width="1440" height="900" fill="url(#sky)"/>
  <circle cx="200" cy="100" r="1.5" fill="white" opacity="0.8"/>
  <circle cx="400" cy="60" r="1" fill="white" opacity="0.6"/>
  <circle cx="650" cy="90" r="1.5" fill="white" opacity="0.7"/>
  <circle cx="900" cy="50" r="1" fill="white" opacity="0.5"/>
  <circle cx="1100" cy="80" r="2" fill="white" opacity="0.8"/>
  <circle cx="1300" cy="40" r="1.5" fill="white" opacity="0.6"/>
  <circle cx="1380" cy="120" r="1" fill="white" opacity="0.5"/>
  <circle cx="750" cy="140" r="1.5" fill="white" opacity="0.6"/>
  <circle cx="1200" cy="130" r="2" fill="white" opacity="0.7"/>
  <circle cx="1300" cy="120" r="36" fill="#f0f8ff" opacity="0.12"/>
  <circle cx="1300" cy="120" r="28" fill="#f0f8ff" opacity="0.15"/>
  <rect x="0" y="560" width="1440" height="340" fill="url(#sea)"/>
  <path d="M0 570 Q360 555 720 570 Q1080 585 1440 570 L1440 582 Q1080 597 720 582 Q360 567 0 582 Z" fill="#0c6070" opacity="0.5"/>
  <path d="M0 610 Q360 598 720 610 Q1080 622 1440 610 L1440 620 Q1080 632 720 620 Q360 608 0 620 Z" fill="#0b5565" opacity="0.4"/>
  <path d="M420 480 L460 480 L470 510 L970 510 L980 480 L1020 480 L1048 540 L1048 558 Q720 570 392 558 L392 540 Z" fill="#1a3a6a"/>
  <path d="M400 540 L1040 540 L1040 555 Q720 565 400 555 Z" fill="#0f2b5b"/>
  <path d="M415 530 L1025 530 L1025 538 L415 538 Z" fill="white" opacity="0.1"/>
  <rect x="500" y="340" width="440" height="145" rx="3" fill="#1e4080"/>
  <rect x="540" y="270" width="360" height="75" rx="3" fill="#1a3a6a"/>
  <rect x="580" y="210" width="280" height="65" rx="3" fill="#163060"/>
  <rect x="620" y="160" width="200" height="55" rx="3" fill="#122858"/>
  <rect x="660" y="120" width="120" height="45" rx="3" fill="#0f2450"/>
  <rect x="580" y="220" width="28" height="18" rx="2" fill="#7dd3fc" opacity="0.8"/>
  <rect x="618" y="220" width="28" height="18" rx="2" fill="#7dd3fc" opacity="0.8"/>
  <rect x="656" y="220" width="28" height="18" rx="2" fill="#7dd3fc" opacity="0.8"/>
  <rect x="694" y="220" width="28" height="18" rx="2" fill="#7dd3fc" opacity="0.8"/>
  <rect x="732" y="220" width="28" height="18" rx="2" fill="#7dd3fc" opacity="0.8"/>
  <rect x="770" y="220" width="28" height="18" rx="2" fill="#7dd3fc" opacity="0.8"/>
  <rect x="808" y="220" width="28" height="18" rx="2" fill="#7dd3fc" opacity="0.8"/>
  <g opacity="0.65">
    <rect x="515" y="358" width="16" height="10" rx="2" fill="#bae6fd"/>
    <rect x="543" y="358" width="16" height="10" rx="2" fill="#bae6fd"/>
    <rect x="571" y="358" width="16" height="10" rx="2" fill="#bae6fd"/>
    <rect x="599" y="358" width="16" height="10" rx="2" fill="#bae6fd"/>
    <rect x="627" y="358" width="16" height="10" rx="2" fill="#bae6fd"/>
    <rect x="655" y="358" width="16" height="10" rx="2" fill="#bae6fd"/>
    <rect x="683" y="358" width="16" height="10" rx="2" fill="#bae6fd"/>
    <rect x="711" y="358" width="16" height="10" rx="2" fill="#bae6fd"/>
    <rect x="739" y="358" width="16" height="10" rx="2" fill="#bae6fd"/>
    <rect x="767" y="358" width="16" height="10" rx="2" fill="#bae6fd"/>
    <rect x="795" y="358" width="16" height="10" rx="2" fill="#bae6fd"/>
    <rect x="823" y="358" width="16" height="10" rx="2" fill="#bae6fd"/>
    <rect x="851" y="358" width="16" height="10" rx="2" fill="#bae6fd"/>
    <rect x="879" y="358" width="16" height="10" rx="2" fill="#bae6fd"/>
    <rect x="907" y="358" width="16" height="10" rx="2" fill="#bae6fd"/>
    <rect x="515" y="386" width="16" height="10" rx="2" fill="#bae6fd"/>
    <rect x="543" y="386" width="16" height="10" rx="2" fill="#bae6fd"/>
    <rect x="571" y="386" width="16" height="10" rx="2" fill="#bae6fd"/>
    <rect x="599" y="386" width="16" height="10" rx="2" fill="#bae6fd"/>
    <rect x="627" y="386" width="16" height="10" rx="2" fill="#bae6fd"/>
    <rect x="655" y="386" width="16" height="10" rx="2" fill="#bae6fd"/>
    <rect x="683" y="386" width="16" height="10" rx="2" fill="#bae6fd"/>
    <rect x="711" y="386" width="16" height="10" rx="2" fill="#bae6fd"/>
    <rect x="739" y="386" width="16" height="10" rx="2" fill="#bae6fd"/>
    <rect x="767" y="386" width="16" height="10" rx="2" fill="#bae6fd"/>
    <rect x="795" y="386" width="16" height="10" rx="2" fill="#bae6fd"/>
    <rect x="823" y="386" width="16" height="10" rx="2" fill="#bae6fd"/>
    <rect x="851" y="386" width="16" height="10" rx="2" fill="#bae6fd"/>
    <rect x="879" y="386" width="16" height="10" rx="2" fill="#bae6fd"/>
    <rect x="907" y="386" width="16" height="10" rx="2" fill="#bae6fd"/>
    <rect x="515" y="414" width="16" height="10" rx="2" fill="#bae6fd"/>
    <rect x="543" y="414" width="16" height="10" rx="2" fill="#bae6fd"/>
    <rect x="571" y="414" width="16" height="10" rx="2" fill="#bae6fd"/>
    <rect x="599" y="414" width="16" height="10" rx="2" fill="#bae6fd"/>
    <rect x="627" y="414" width="16" height="10" rx="2" fill="#bae6fd"/>
    <rect x="655" y="414" width="16" height="10" rx="2" fill="#bae6fd"/>
    <rect x="683" y="414" width="16" height="10" rx="2" fill="#bae6fd"/>
    <rect x="711" y="414" width="16" height="10" rx="2" fill="#bae6fd"/>
    <rect x="739" y="414" width="16" height="10" rx="2" fill="#bae6fd"/>
    <rect x="767" y="414" width="16" height="10" rx="2" fill="#bae6fd"/>
    <rect x="795" y="414" width="16" height="10" rx="2" fill="#bae6fd"/>
    <rect x="823" y="414" width="16" height="10" rx="2" fill="#bae6fd"/>
    <rect x="851" y="414" width="16" height="10" rx="2" fill="#bae6fd"/>
    <rect x="879" y="414" width="16" height="10" rx="2" fill="#bae6fd"/>
    <rect x="907" y="414" width="16" height="10" rx="2" fill="#bae6fd"/>
    <rect x="515" y="442" width="16" height="10" rx="2" fill="#bae6fd"/>
    <rect x="543" y="442" width="16" height="10" rx="2" fill="#bae6fd"/>
    <rect x="571" y="442" width="16" height="10" rx="2" fill="#bae6fd"/>
    <rect x="599" y="442" width="16" height="10" rx="2" fill="#bae6fd"/>
    <rect x="627" y="442" width="16" height="10" rx="2" fill="#bae6fd"/>
    <rect x="655" y="442" width="16" height="10" rx="2" fill="#bae6fd"/>
    <rect x="683" y="442" width="16" height="10" rx="2" fill="#bae6fd"/>
    <rect x="711" y="442" width="16" height="10" rx="2" fill="#bae6fd"/>
    <rect x="739" y="442" width="16" height="10" rx="2" fill="#bae6fd"/>
    <rect x="767" y="442" width="16" height="10" rx="2" fill="#bae6fd"/>
    <rect x="795" y="442" width="16" height="10" rx="2" fill="#bae6fd"/>
    <rect x="823" y="442" width="16" height="10" rx="2" fill="#bae6fd"/>
    <rect x="851" y="442" width="16" height="10" rx="2" fill="#bae6fd"/>
    <rect x="879" y="442" width="16" height="10" rx="2" fill="#bae6fd"/>
    <rect x="907" y="442" width="16" height="10" rx="2" fill="#bae6fd"/>
  </g>
  <rect x="682" y="88" width="34" height="36" rx="3" fill="#0f2b5b"/>
  <rect x="724" y="88" width="34" height="36" rx="3" fill="#0f2b5b"/>
  <ellipse cx="699" cy="87" rx="19" ry="7" fill="#0e7490"/>
  <ellipse cx="741" cy="87" rx="19" ry="7" fill="#0e7490"/>
  <rect x="682" y="100" width="34" height="5" fill="#0e7490" opacity="0.7"/>
  <rect x="724" y="100" width="34" height="5" fill="#0e7490" opacity="0.7"/>
  <path d="M699 80 Q703 62 698 45 Q693 28 697 12" stroke="#e2e8f0" stroke-width="2.5" fill="none" opacity="0.25"/>
  <path d="M741 80 Q747 58 743 38 Q739 20 745 5" stroke="#e2e8f0" stroke-width="2.5" fill="none" opacity="0.2"/>
  <line x1="720" y1="120" x2="720" y2="58" stroke="#e2e8f0" stroke-width="1.5" opacity="0.5"/>
  <line x1="700" y1="73" x2="740" y2="73" stroke="#e2e8f0" stroke-width="1.2" opacity="0.4"/>
  <circle cx="500" cy="340" r="3" fill="#fbbf24" opacity="0.9"/>
  <circle cx="620" cy="340" r="3" fill="#fbbf24" opacity="0.9"/>
  <circle cx="740" cy="340" r="3" fill="#fbbf24" opacity="0.9"/>
  <circle cx="860" cy="340" r="3" fill="#fbbf24" opacity="0.9"/>
  <circle cx="940" cy="340" r="3" fill="#fbbf24" opacity="0.9"/>
</svg>